<svg height="750" viewBox="0 0 1050 750" width="1050" xmlns="http://www.w3.org/2000/svg">
<defs>
<path d="M520,33 L416,41 L356,54 L288,82 L264,99 L246,117 L231,150 L231,181 L237,200 L246,215 L258,274 L275,311 L291,336 L286,340 L275,339 L264,343 L250,360 L227,372 L221,387 L222,401 L228,424 L243,456 L206,485 L176,514 L148,547 L125,585 L114,610 L107,645 L111,646 L134,627 L155,617 L190,606 L232,601 L262,602 L306,609 L366,629 L395,642 L419,662 L450,681 L485,695 L524,696 L545,689 L555,689 L595,699 L665,703 L714,698 L746,689 L782,674 L828,643 L853,619 L881,581 L908,520 L914,483 L912,446 L896,405 L878,380 L834,341 L778,310 L792,277 L808,255 L815,237 L815,208 L810,194 L846,192 L847,188 L835,176 L792,148 L699,102 L791,148 L834,176 L847,189 L845,192 L810,193 L815,208 L815,237 L808,254 L792,277 L778,311 L833,341 L859,362 L883,387 L897,408 L912,446 L914,483 L908,520 L881,580 L859,611 L836,635 L797,665 L746,689 L714,698 L665,703 L595,699 L555,689 L512,697 L485,695 L451,681 L423,664 L396,642 L362,627 L306,609 L262,602 L232,601 L190,606 L133,627 L108,645 L113,613 L125,586 L148,548 L176,515 L207,485 L243,457 L243,452 L227,421 L222,401 L221,387 L227,373 L251,360 L265,343 L291,337 L257,271 L246,215 L231,181 L231,150 L246,118 L258,105 L289,82 L356,54 L432,39 L519,34 z" id="a"/>
<path d="M521,36 L495,54 L521,37 z" id="b"/>
<path d="M484,41 L400,51 L333,69 L400,51 L485,42 z" id="c"/>
<path d="M493,41 L493,45 L476,56 L478,60 L513,56 L641,72 L704,87 L709,91 L699,100 L709,92 L707,88 L641,72 L513,56 L479,60 L476,57 L494,45 L494,41 z" id="d"/>
<path d="M448,56 L379,69 L319,93 L298,107 L281,123 L267,147 L265,164 L270,187 L294,220 L338,251 L385,272 L339,251 L312,234 L285,209 L270,187 L265,164 L269,142 L294,111 L315,96 L340,83 L379,69 L419,60 L454,56 L452,60 L425,72 L426,76 L492,75 L565,81 L661,93 L662,96 L659,98 L629,100 L662,98 L663,94 L657,92 L565,81 L492,75 L427,76 L424,74 L426,72 L455,59 L454,56 L449,56 z" id="e"/>
<path d="M507,62 L508,62 z" id="f"/>
<path d="M535,65 L536,65 z" id="g"/>
<path d="M559,67 L575,68 L560,68 z" id="h"/>
<path d="M330,70 L331,70 z" id="i"/>
<path d="M581,70 L582,70 z" id="j"/>
<path d="M587,71 L588,71 z" id="k"/>
<path d="M320,73 L314,77 L321,73 z" id="l"/>
<path d="M416,73 L416,78 L420,77 L417,78 L417,73 z" id="m"/>
<path d="M606,74 L624,77 L607,74 z" id="n"/>
<path d="M422,75 L422,76 z" id="o"/>
<path d="M629,77 L630,77 z" id="p"/>
<path d="M307,79 L277,96 L254,117 L242,139 L237,159 L237,176 L254,216 L255,231 L267,276 L280,305 L300,336 L288,348 L276,347 L267,350 L252,369 L237,373 L231,379 L228,394 L231,408 L252,458 L210,491 L166,537 L140,575 L117,627 L120,625 L131,592 L166,538 L211,491 L252,459 L251,450 L240,432 L231,408 L228,389 L231,380 L238,373 L253,369 L268,350 L291,347 L300,337 L267,276 L252,209 L237,176 L237,159 L242,139 L254,118 L278,96 L308,79 z" id="q"/>
<path d="M645,80 L646,80 z" id="r"/>
<path d="M659,83 L660,83 z" id="s"/>
<path d="M676,86 L677,86 z" id="t"/>
<path d="M695,91 L682,101 L699,107 L682,100 L695,92 z" id="u"/>
<path d="M410,98 L368,105 L337,114 L317,129 L313,138 L314,152 L329,170 L361,190 L392,203 L434,215 L489,225 L516,228 L593,228 L629,222 L657,212 L674,199 L678,186 L674,198 L665,207 L629,222 L593,228 L516,228 L468,222 L411,209 L366,192 L334,173 L314,151 L313,138 L325,122 L355,108 L421,98 L423,100 L419,103 L382,108 L363,115 L349,127 L345,135 L345,144 L359,164 L378,177 L421,196 L456,206 L525,217 L596,218 L633,212 L655,205 L668,197 L676,186 L663,200 L642,210 L596,218 L504,215 L433,200 L400,188 L374,174 L357,161 L345,144 L345,135 L355,121 L382,108 L422,102 L422,98 L411,98 z" id="v"/>
<path d="M627,99 L627,100 z" id="w"/>
<path d="M621,102 L625,103 L622,103 z" id="x"/>
<path d="M629,103 L643,105 L687,120 L794,171 L792,175 L754,166 L754,170 L771,186 L786,210 L789,220 L788,241 L779,257 L766,270 L744,284 L724,290 L725,294 L731,294 L762,283 L726,294 L725,290 L745,284 L767,270 L779,258 L788,241 L789,220 L785,207 L771,185 L754,169 L767,168 L795,176 L796,172 L690,121 L630,103 z" id="z"/>
<path d="M435,113 L379,120 L356,129 L379,120 L435,113 L502,114 L565,123 L606,135 L639,150 L648,157 L662,172 L663,183 L658,196 L663,178 L655,162 L640,150 L598,132 L537,118 L487,113 L436,113 z" id="C"/>
<path d="M436,125 L382,135 L366,141 L354,151 L376,137 L426,126 L495,125 L535,129 L587,140 L631,158 L653,177 L656,189 L651,200 L656,183 L650,172 L632,158 L608,147 L569,135 L535,129 L495,125 L437,125 z" id="F"/>
<path d="M617,127 L614,128 L615,131 L644,141 L672,157 L689,173 L695,183 L695,198 L681,215 L662,225 L635,233 L589,239 L543,240 L489,236 L424,224 L377,209 L340,191 L312,168 L306,154 L303,153 L302,160 L306,171 L318,186 L346,206 L378,221 L418,234 L481,248 L574,256 L633,254 L665,249 L698,240 L718,229 L727,219 L731,209 L729,192 L711,171 L693,159 L647,137 L618,128 z" id="G"/>
<path d="M616,128 L663,144 L710,171 L728,191 L731,209 L717,229 L697,240 L678,246 L633,254 L574,256 L481,248 L386,224 L347,206 L326,192 L306,170 L302,156 L305,154 L312,169 L339,191 L372,207 L413,221 L489,236 L542,240 L589,239 L635,233 L665,224 L682,215 L695,198 L695,183 L689,172 L677,160 L644,141 L616,131 L615,128 z" id="H"/>
<path d="M457,137 L431,141 L402,150 L376,164 L375,168 L404,167 L420,183 L464,201 L507,209 L555,210 L605,200 L640,184 L641,179 L611,179 L593,162 L566,150 L541,143 L493,137 L458,137 z" id="I"/>
<path d="M456,138 L493,137 L541,143 L574,153 L592,162 L611,179 L642,181 L624,192 L591,204 L555,210 L520,210 L492,207 L451,197 L421,183 L405,167 L375,167 L402,150 L431,141 L455,138 z" id="J"/>
<path d="M774,145 L829,179 L775,146 z" id="K"/>
<path d="M475,150 L457,153 L445,160 L446,169 L454,175 L470,182 L498,188 L548,189 L565,185 L572,179 L571,173 L563,166 L520,153 L476,150 z" id="L"/>
<path d="M474,151 L496,150 L536,156 L562,166 L572,175 L566,184 L555,188 L510,189 L474,183 L446,168 L444,163 L449,157 L473,151 z" id="M"/>
<path d="M474,156 L450,163 L466,157 L502,156 L547,165 L561,171 L565,175 L564,179 L565,174 L558,169 L538,162 L502,156 L475,156 z" id="N"/>
<path d="M704,159 L732,186 L743,208 L739,223 L728,235 L694,251 L647,260 L565,262 L472,252 L430,243 L401,233 L408,237 L411,245 L415,246 L408,240 L410,237 L489,255 L563,262 L647,260 L694,251 L729,235 L739,224 L743,208 L740,197 L732,185 L705,160 z" id="O"/>
<path d="M830,181 L798,183 L806,203 L807,236 L800,252 L789,264 L775,297 L765,308 L766,314 L791,323 L767,314 L765,309 L775,298 L789,265 L800,253 L807,236 L806,203 L798,184 L830,182 z" id="P"/>
<path d="M771,205 L774,217 L773,235 L764,250 L751,263 L728,277 L679,292 L678,297 L726,284 L762,264 L779,240 L781,225 L777,205 L781,225 L780,236 L772,252 L761,264 L723,285 L682,297 L678,294 L731,276 L752,263 L764,251 L773,235 L772,206 z" id="Q"/>
<path d="M328,221 L329,227 L388,270 L343,234 L330,227 L327,224 L329,221 L359,236 L561,317 L556,320 L452,305 L378,288 L340,274 L346,278 L452,305 L560,320 L560,315 L537,309 L359,236 L329,221 z" id="R"/>
<path d="M322,269 L337,274 L323,269 z" id="S"/>
<path d="M319,271 L345,295 L371,312 L406,327 L437,334 L427,341 L409,347 L380,349 L389,368 L388,396 L399,409 L403,432 L508,488 L537,470 L562,462 L595,461 L604,466 L570,468 L546,478 L519,502 L519,522 L516,524 L509,509 L500,499 L394,444 L390,440 L390,413 L382,403 L376,402 L374,416 L377,402 L390,413 L390,440 L393,444 L499,499 L509,510 L516,525 L519,524 L519,503 L544,480 L570,468 L603,468 L604,465 L595,461 L562,462 L536,470 L508,488 L477,469 L404,432 L401,429 L399,409 L388,396 L389,368 L380,350 L416,345 L436,337 L437,333 L406,327 L374,313 L346,295 L320,271 z" id="T"/>
<path d="M762,285 L750,301 L732,317 L699,336 L676,341 L674,344 L697,337 L721,325 L746,306 L763,286 z" id="U"/>
<path d="M747,293 L719,319 L697,331 L684,334 L700,330 L720,319 L747,294 z" id="V"/>
<path d="M447,309 L543,345 L544,347 L534,355 L516,362 L485,359 L469,351 L457,340 L446,320 L447,311 L446,320 L450,331 L468,351 L488,360 L516,362 L541,351 L544,348 L543,344 L448,309 z" id="W"/>
<path d="M652,312 L571,345 L574,350 L585,356 L614,360 L635,353 L648,342 L657,322 L657,313 L653,312 z" id="X"/>
<path d="M652,313 L656,313 L657,322 L645,344 L626,357 L600,360 L581,354 L572,347 L574,344 L651,313 z" id="Y"/>
<path d="M645,322 L588,345 L588,350 L604,354 L627,351 L645,335 L648,328 L646,323 z" id="Z"/>
<path d="M457,324 L462,336 L476,349 L497,356 L507,356 L526,350 L525,345 L458,324 z" id="ba"/>
<path d="M643,324 L646,323 L648,328 L633,347 L621,353 L604,354 L589,350 L589,345 L642,324 z" id="bb"/>
<path d="M457,325 L481,330 L527,348 L520,353 L507,356 L485,353 L470,344 L457,326 z" id="bc"/>
<path d="M794,325 L832,347 L795,325 z" id="bd"/>
<path d="M727,335 L714,341 L678,347 L715,341 L728,335 z" id="be"/>
<path d="M731,336 L710,359 L689,375 L660,392 L633,402 L639,404 L686,392 L689,394 L673,413 L639,437 L611,444 L614,448 L627,447 L656,438 L683,426 L705,410 L732,416 L761,431 L785,457 L794,480 L791,519 L779,540 L769,551 L740,569 L719,575 L692,578 L650,576 L653,580 L683,591 L685,595 L667,614 L633,632 L592,643 L545,647 L533,656 L520,660 L496,659 L478,653 L438,628 L392,590 L314,511 L373,574 L437,628 L477,653 L503,660 L524,659 L545,647 L592,643 L633,632 L668,614 L685,597 L684,591 L651,579 L651,576 L692,578 L719,575 L753,563 L775,546 L791,519 L794,480 L780,448 L753,425 L721,412 L704,410 L682,426 L658,437 L627,447 L612,446 L640,437 L657,427 L674,413 L689,394 L681,393 L639,404 L634,404 L634,401 L661,392 L690,375 L711,359 L730,337 z" id="bf"/>
<path d="M318,341 L309,344 L293,356 L278,358 L263,376 L256,381 L243,384 L237,391 L237,403 L244,424 L261,457 L290,489 L312,506 L315,504 L363,520 L380,521 L379,525 L360,526 L358,530 L393,563 L450,603 L481,617 L511,624 L539,623 L559,614 L561,617 L549,635 L527,642 L498,639 L468,628 L411,593 L360,550 L318,509 L379,568 L433,609 L485,635 L508,641 L527,642 L550,635 L561,617 L560,614 L539,623 L511,624 L466,611 L408,574 L358,529 L361,526 L380,525 L381,521 L363,520 L315,504 L313,506 L291,489 L261,456 L243,421 L237,403 L237,391 L244,384 L257,381 L264,376 L280,357 L298,354 L313,342 L352,342 L365,354 L378,373 L378,387 L375,392 L372,389 L368,373 L361,366 L357,366 L352,378 L353,405 L360,419 L377,432 L383,427 L384,420 L381,414 L383,427 L377,432 L360,418 L353,405 L352,380 L358,366 L368,374 L372,390 L377,391 L378,372 L368,357 L353,342 L319,341 z" id="bg"/>
<path d="M747,342 L747,342 L754,342 L808,364 L838,386 L861,415 L872,438 L875,464 L873,496 L863,534 L832,588 L809,612 L778,634 L737,653 L709,662 L676,668 L632,670 L676,668 L709,662 L745,650 L779,634 L810,612 L832,589 L863,534 L873,496 L875,460 L872,438 L861,414 L839,386 L814,367 L784,352 L748,342 z" id="bh"/>
<path d="M711,346 L688,369 L660,386 L689,369 L712,346 z" id="bi"/>
<path d="M345,347 L335,351 L317,349 L297,363 L283,364 L267,383 L244,393 L245,406 L253,431 L269,458 L297,487 L314,499 L327,503 L315,499 L298,487 L269,457 L249,420 L244,394 L249,389 L257,389 L268,383 L282,365 L300,362 L317,349 L335,351 L346,347 z" id="bj"/>
<path d="M739,351 L724,366 L725,371 L736,371 L783,387 L837,421 L833,423 L809,410 L766,396 L739,392 L738,397 L759,405 L810,416 L823,422 L825,425 L821,427 L826,426 L828,429 L825,423 L813,417 L759,405 L739,397 L740,392 L777,399 L817,414 L835,425 L837,421 L839,426 L842,423 L784,387 L747,374 L726,371 L724,367 L739,352 z" id="bk"/>
<path d="M504,367 L473,381 L504,368 z" id="bm"/>
<path d="M365,378 L365,395 L372,414 L366,400 L365,379 z" id="bn"/>
<path d="M867,378 L868,379 z" id="bo"/>
<path d="M459,383 L450,385 L443,397 L446,442 L452,451 L510,431 L565,423 L591,423 L592,420 L586,415 L596,412 L594,408 L544,397 L460,383 z" id="bq"/>
<path d="M458,384 L509,390 L596,411 L586,414 L586,418 L592,421 L590,423 L555,424 L510,431 L451,451 L447,446 L444,429 L443,397 L451,385 L457,384 z" id="br"/>
<path d="M465,392 L457,393 L453,397 L450,408 L453,410 L493,407 L496,410 L488,414 L453,417 L453,435 L458,437 L517,423 L581,417 L579,412 L540,402 L466,392 z" id="bs"/>
<path d="M464,393 L488,393 L540,402 L576,411 L581,416 L578,419 L517,423 L456,437 L451,424 L454,417 L496,411 L494,407 L453,410 L450,404 L453,398 L458,393 L463,393 z" id="bt"/>
<path d="M882,395 L902,436 L906,461 L906,491 L902,512 L885,556 L853,607 L827,633 L782,665 L738,683 L701,692 L664,695 L609,692 L549,679 L519,688 L489,687 L453,674 L403,637 L365,620 L324,606 L267,594 L210,594 L192,597 L152,609 L127,621 L119,628 L155,608 L192,597 L210,594 L267,594 L324,606 L388,630 L402,637 L452,674 L489,687 L519,688 L549,679 L609,692 L664,695 L695,693 L738,683 L783,665 L816,643 L853,608 L879,568 L895,533 L906,491 L906,461 L902,436 L882,396 z" id="bu"/>
<path d="M675,401 L661,416 L633,434 L653,423 L675,402 z" id="bv"/>
<path d="M380,410 L381,411 z" id="bw"/>
<path d="M770,412 L789,428 L809,455 L815,481 L816,507 L809,544 L790,582 L770,603 L770,603 L774,602 L774,598 L790,583 L804,558 L814,526 L816,507 L816,483 L808,452 L789,427 L771,412 z" id="bx"/>
<path d="M378,414 L378,415 z" id="by"/>
<path d="M834,424 L835,425 z" id="bz"/>
<path d="M561,428 L508,445 L474,461 L511,444 L561,428 L562,428 z" id="bA"/>
<path d="M816,431 L815,434 L819,435 L817,431 z" id="bB"/>
<path d="M816,432 L818,435 L815,433 z" id="bC"/>
<path d="M643,446 L683,450 L711,459 L728,473 L736,491 L746,486 L751,473 L746,485 L737,491 L728,472 L712,459 L683,450 L644,446 z" id="bD"/>
<path d="M586,471 L569,475 L545,489 L525,515 L523,523 L531,507 L546,489 L572,474 L598,471 L587,471 z" id="bF"/>
<path d="M754,472 L759,484 L761,511 L758,521 L732,549 L708,561 L689,566 L639,569 L618,566 L642,569 L689,566 L711,560 L733,549 L757,523 L761,511 L759,483 L755,473 z" id="bG"/>
<path d="M263,474 L235,492 L202,522 L176,552 L156,582 L159,584 L186,576 L228,570 L274,569 L308,573 L353,584 L309,513 L305,508 L293,503 L272,482 L292,503 L304,508 L309,514 L353,582 L351,585 L323,576 L274,569 L228,570 L186,576 L162,581 L159,584 L156,582 L189,537 L216,509 L261,475 L263,474 L269,482 L264,475 z" id="bH"/>
<path d="M388,479 L387,488 L519,564 L519,560 L512,555 L389,479 z" id="bI"/>
<path d="M387,480 L390,479 L434,509 L511,555 L519,563 L516,564 L388,488 L387,481 z" id="bJ"/>
<path d="M267,482 L243,497 L214,521 L188,547 L165,577 L188,548 L215,521 L244,497 L267,483 z" id="bK"/>
<path d="M270,487 L271,487 z" id="bL"/>
<path d="M279,495 L282,498 L279,496 z" id="bM"/>
<path d="M268,550 L266,555 L273,558 L270,554 L275,552 L269,551 z" id="bO"/>
<path d="M251,551 L246,558 L252,551 L255,556 L250,556 L255,558 L252,551 z" id="bP"/>
<path d="M267,552 L271,553 L269,555 L266,553 z" id="bQ"/>
<path d="M242,561 L194,568 L172,575 L194,568 L243,561 L280,561 L341,571 L280,561 L243,561 z" id="bR"/>
<path d="M615,566 L656,598 L641,610 L614,623 L569,635 L556,635 L553,638 L614,623 L642,610 L656,599 L616,567 z" id="bS"/>
<path d="M832,578 L815,598 L781,624 L758,636 L726,645 L761,635 L782,624 L806,607 L826,587 L828,588 L833,578 z" id="bT"/>
<path d="M764,580 L728,613 L675,645 L728,614 L765,580 z" id="bU"/>
<path d="M335,590 L332,594 L336,596 L336,590 z" id="bV"/>
<path d="M334,591 L338,592 L336,595 L332,594 L333,592 z" id="bW"/>
<path d="M563,613 L563,614 z" id="bX"/>
<path d="M717,646 L684,651 L674,651 L669,647 L621,667 L668,649 L684,651 L718,646 L718,646 z" id="bZ"/>
</defs>
<g stroke-width="1px">
<use href="#a" stroke="black"/>
<use href="#b" stroke="black"/>
<use href="#c" stroke="black"/>
<use href="#d" stroke="black"/>
<use href="#e" stroke="black"/>
<use href="#f" stroke="black"/>
<use href="#g" stroke="black"/>
<use href="#h" stroke="black"/>
<use href="#i" stroke="black"/>
<use href="#j" stroke="black"/>
<use href="#k" stroke="black"/>
<use href="#l" stroke="black"/>
<use href="#m" stroke="black"/>
<use href="#n" stroke="black"/>
<use href="#o" stroke="black"/>
<use href="#p" stroke="black"/>
<use href="#q" stroke="black"/>
<use href="#r" stroke="black"/>
<use href="#s" stroke="black"/>
<use href="#t" stroke="black"/>
<use href="#u" stroke="black"/>
<use href="#v" stroke="black"/>
<use href="#w" stroke="black"/>
<use href="#x" stroke="black"/>
<use href="#z" stroke="black"/>
<use href="#C" stroke="black"/>
<use href="#F" stroke="black"/>
<use href="#G" stroke="black"/>
<use href="#H" stroke="black"/>
<use href="#I" stroke="black"/>
<use href="#J" stroke="black"/>
<use href="#K" stroke="black"/>
<use href="#L" stroke="black"/>
<use href="#M" stroke="black"/>
<use href="#N" stroke="black"/>
<use href="#O" stroke="black"/>
<use href="#P" stroke="black"/>
<use href="#Q" stroke="black"/>
<use href="#R" stroke="black"/>
<use href="#S" stroke="black"/>
<use href="#T" stroke="black"/>
<use href="#U" stroke="black"/>
<use href="#V" stroke="black"/>
<use href="#W" stroke="black"/>
<use href="#X" stroke="black"/>
<use href="#Y" stroke="black"/>
<use href="#Z" stroke="black"/>
<use href="#ba" stroke="black"/>
<use href="#bb" stroke="black"/>
<use href="#bc" stroke="black"/>
<use href="#bd" stroke="black"/>
<use href="#be" stroke="black"/>
<use href="#bf" stroke="black"/>
<use href="#bg" stroke="black"/>
<use href="#bh" stroke="black"/>
<use href="#bi" stroke="black"/>
<use href="#bj" stroke="black"/>
<use href="#bk" stroke="black"/>
<use href="#bm" stroke="black"/>
<use href="#bn" stroke="black"/>
<use href="#bo" stroke="black"/>
<use href="#bq" stroke="black"/>
<use href="#br" stroke="black"/>
<use href="#bs" stroke="black"/>
<use href="#bt" stroke="black"/>
<use href="#bu" stroke="black"/>
<use href="#bv" stroke="black"/>
<use href="#bw" stroke="black"/>
<use href="#bx" stroke="black"/>
<use href="#by" stroke="black"/>
<use href="#bz" stroke="black"/>
<use href="#bA" stroke="black"/>
<use href="#bB" stroke="black"/>
<use href="#bC" stroke="black"/>
<use href="#bD" stroke="black"/>
<use href="#bF" stroke="black"/>
<use href="#bG" stroke="black"/>
<use href="#bH" stroke="black"/>
<use href="#bI" stroke="black"/>
<use href="#bJ" stroke="black"/>
<use href="#bK" stroke="black"/>
<use href="#bL" stroke="black"/>
<use href="#bM" stroke="black"/>
<use href="#bO" stroke="black"/>
<use href="#bP" stroke="black"/>
<use href="#bQ" stroke="black"/>
<use href="#bR" stroke="black"/>
<use href="#bS" stroke="black"/>
<use href="#bT" stroke="black"/>
<use href="#bU" stroke="black"/>
<use href="#bV" stroke="black"/>
<use href="#bW" stroke="black"/>
<use href="#bX" stroke="black"/>
<use href="#bZ" stroke="black"/>
</g>
<g>
<use fill="none" href="#a"/>
<use fill="none" href="#b"/>
<use fill="none" href="#c"/>
<use fill="none" href="#d"/>
<use fill="none" href="#e"/>
<use fill="none" href="#f"/>
<use fill="none" href="#g"/>
<use fill="none" href="#h"/>
<use fill="none" href="#i"/>
<use fill="none" href="#j"/>
<use fill="none" href="#k"/>
<use fill="none" href="#l"/>
<use fill="none" href="#m"/>
<use fill="none" href="#n"/>
<use fill="none" href="#o"/>
<use fill="none" href="#p"/>
<use fill="none" href="#q"/>
<use fill="none" href="#r"/>
<use fill="none" href="#s"/>
<use fill="none" href="#t"/>
<use fill="none" href="#u"/>
<use fill="none" href="#v"/>
<use fill="none" href="#w"/>
<use fill="none" href="#x"/>
<use fill="none" href="#z"/>
<use fill="none" href="#C"/>
<use fill="none" href="#F"/>
<use fill="none" href="#G"/>
<use fill="none" href="#H"/>
<use fill="none" href="#I"/>
<use fill="none" href="#J"/>
<use fill="none" href="#K"/>
<use fill="none" href="#L"/>
<use fill="none" href="#M"/>
<use fill="none" href="#N"/>
<use fill="none" href="#O"/>
<use fill="none" href="#P"/>
<use fill="none" href="#Q"/>
<use fill="none" href="#R"/>
<use fill="none" href="#S"/>
<use fill="none" href="#T"/>
<use fill="none" href="#U"/>
<use fill="none" href="#V"/>
<use fill="none" href="#W"/>
<use fill="none" href="#X"/>
<use fill="none" href="#Y"/>
<use fill="none" href="#Z"/>
<use fill="none" href="#ba"/>
<use fill="none" href="#bb"/>
<use fill="none" href="#bc"/>
<use fill="none" href="#bd"/>
<use fill="none" href="#be"/>
<use fill="none" href="#bf"/>
<use fill="none" href="#bg"/>
<use fill="none" href="#bh"/>
<use fill="none" href="#bi"/>
<use fill="none" href="#bj"/>
<use fill="none" href="#bk"/>
<use fill="none" href="#bm"/>
<use fill="none" href="#bn"/>
<use fill="none" href="#bo"/>
<use fill="none" href="#bq"/>
<use fill="none" href="#br"/>
<use fill="none" href="#bs"/>
<use fill="none" href="#bt"/>
<use fill="none" href="#bu"/>
<use fill="none" href="#bv"/>
<use fill="none" href="#bw"/>
<use fill="none" href="#bx"/>
<use fill="none" href="#by"/>
<use fill="none" href="#bz"/>
<use fill="none" href="#bA"/>
<use fill="none" href="#bB"/>
<use fill="none" href="#bC"/>
<use fill="none" href="#bD"/>
<use fill="none" href="#bF"/>
<use fill="none" href="#bG"/>
<use fill="none" href="#bH"/>
<use fill="none" href="#bI"/>
<use fill="none" href="#bJ"/>
<use fill="none" href="#bK"/>
<use fill="none" href="#bL"/>
<use fill="none" href="#bM"/>
<use fill="none" href="#bO"/>
<use fill="none" href="#bP"/>
<use fill="none" href="#bQ"/>
<use fill="none" href="#bR"/>
<use fill="none" href="#bS"/>
<use fill="none" href="#bT"/>
<use fill="none" href="#bU"/>
<use fill="none" href="#bV"/>
<use fill="none" href="#bW"/>
<use fill="none" href="#bX"/>
<use fill="none" href="#bZ"/>
</g>
</svg>